<svg width="188" height="208" viewBox="0 0 188 208" fill="none" xmlns="http://www.w3.org/2000/svg">
<path d="M20.8682 46.6587L14.8682 47.4087L13.8682 48.6587L12.3682 52.6587L19.8682 67.1587L22.8682 75.1587L21.8682 78.6587L17.8682 80.6587L11.3682 84.1587L3.86816 86.6587V87.6587L5.86816 90.1587L8.86816 94.1587L11.3682 98.6587L13.8682 101.659L12.3682 107.659L11.3682 110.159L7.86816 110.659L2.36816 112.659L7.36816 119.659L14.8682 126.159L15.3682 130.159V137.659L15.8682 139.659L20.8682 142.659L25.8682 141.659L26.8682 146.159V149.159L22.8682 157.159L21.3682 161.159L19.8682 164.659L20.8682 168.159L22.8682 171.159L31.8682 173.159L36.8682 173.659L41.3682 176.659L43.8682 181.159V185.159L44.8682 189.159L48.3682 189.659L50.8682 188.159L52.3682 187.159L54.3682 185.159H60.8682L64.8682 189.659L66.8682 193.659L69.3682 199.659L72.3682 201.659L74.3682 201.159L76.3682 199.659L82.8682 198.659L87.3682 199.659L93.3682 202.659L98.3682 204.159H104.368L109.368 206.159H113.868H119.868L123.868 204.159L127.368 202.659L130.368 199.659L133.868 196.659L137.368 194.159L140.868 192.159L144.868 191.159L150.368 190.159L154.868 189.659H159.868L165.368 185.659L167.868 182.659L168.368 179.159L167.868 174.159V168.659L170.368 165.659L174.368 162.659L176.868 159.659L179.368 156.659L183.368 153.159L185.868 152.159V149.659L183.868 147.159L180.368 144.659L178.368 142.659L177.868 140.159V135.159V130.159L178.868 126.659L181.868 122.659L179.368 121.159L176.868 119.159L175.368 118.659L173.368 116.159L173.868 111.159L175.368 105.159L173.368 103.659L169.868 104.659L164.368 102.659V99.6587V95.1587L160.368 94.1587H157.368H153.868L150.868 91.1587V88.1587L151.868 85.1587L152.368 80.6587L153.868 75.6587L157.368 70.1587V65.1587L155.868 61.1587L155.368 55.6587V51.6587L157.368 47.6587L158.368 42.6587L160.368 40.1587L161.368 35.6587V32.1587L158.368 28.6587L155.868 27.1587H152.868L146.868 26.1587L144.868 25.1587L141.868 19.1587L141.368 16.6587L137.868 12.6587H135.368L130.368 13.1587L125.868 12.1587V10.1587L126.368 7.65869L121.868 4.65869L120.368 3.15869L117.868 1.65869L113.868 3.15869L110.368 5.15869L104.368 8.65869L100.368 10.1587L93.8682 9.15869L89.3682 8.65869L86.8682 7.65869L83.8682 6.15869L81.8682 7.65869L80.8682 10.6587L79.3682 14.1587L77.8682 16.6587L74.8682 19.1587L70.3682 20.6587L65.3682 19.6587L60.8682 17.6587L58.3682 18.6587L56.3682 22.1587L53.3682 26.6587L51.8682 30.6587L49.3682 33.6587L45.8682 37.6587L42.8682 40.6587L39.3682 44.1587L34.3682 46.1587L31.8682 46.6587H27.3682H24.8682H20.8682Z" stroke="white" stroke-width="3"/>
</svg>
