<svg width="176" height="170" viewBox="0 0 176 170" fill="none" xmlns="http://www.w3.org/2000/svg">
<path d="M42.9602 136.448L40.5652 132.059L39.6072 130.303L38.4097 128.108L36.2942 125.276L34.2189 123.56L31.2257 121.206L27.7535 117.974L20.0905 110.194L15.2615 106.564L10.6318 102.255L7.83799 99.2228L5.48307 95.9511L3.56706 92.4398L2.13005 89.8064L1.53076 85.5766L2.52779 82.1846L3.32541 79.471L4.56194 76.5178L5.75837 72.4474L7.35362 67.0201L8.98896 62.7102L11.1033 59.278L13.2978 58.0805L15.9313 56.6435L18.1258 55.446L21.3575 51.9738L26.1052 47.1046L29.377 44.7497L31.6907 40.6392L34.9614 32.0193L35.9184 27.5099L36.6759 23.679L38.9495 18.4511L41.2633 14.3406L43.1381 10.4695L45.2525 7.03741L47.6464 5.16149L50.7188 3.48498L53.5917 2.48688L56.2652 2.16719L60.495 1.5679L62.3308 2.84453L64.6055 3.88165L67.0396 3.12305L71.9477 2.72316L74.6614 3.52079L76.4972 4.79741L78.5725 6.51294L83.5208 7.23037L86.9128 8.2274L90.5444 9.66334L93.9765 11.7777L96.9697 14.1315L98.8055 15.4081L108.064 17.7609L116.644 19.9143L117.96 19.1958L121.312 19.0755L124.425 18.5163L128.296 20.3911L131.249 21.6277L134.84 21.9463L138.232 22.9433L143.14 22.5434L146.492 22.4231L149.206 23.2208L152.598 24.2178L155.551 25.4543L157.866 27.6088L158.864 30.4817L159.862 33.3546L160.421 36.4671L160.981 39.5795L161.101 42.9315L161.7 47.1612L162.459 49.5953L163.217 52.0293L164.455 55.3411L165.254 58.8925L165.813 62.0049L165.734 66.0353L165.894 70.5046L167.212 76.051L167.771 79.1635L168.57 82.7148L171.005 88.2212L173.16 92.1714L173.56 97.0795L173.721 101.549L174.4 108.013L174.321 112.044L174.242 116.074L173.126 122.379L172.568 125.532L171.132 129.163L170.095 131.438L167.98 134.87L165.786 136.067L163.152 137.504L160.08 139.181L156.569 141.097L145.556 145.967L142.922 147.404L139.81 147.963L136.738 149.64L134.543 150.837L131.391 150.279L124.767 152.754L121.455 153.992L117.505 156.148L114.433 157.824L107.569 159.86L104.497 161.537L101.864 162.974L96.5566 164.731L92.3669 166.447L88.3766 167.485L81.6728 167.726L78.5202 167.168L74.4498 165.971L70.5787 164.097L66.9071 161.543L63.7145 159.868L60.9607 157.953L59.5638 156.437L57.4083 152.487L54.1355 148.577L52.2195 145.065L49.4256 142.033L45.5145 139.041L42.9602 136.448Z" stroke="white" stroke-width="3"/>
</svg>
