<svg width="74" height="69" viewBox="0 0 74 69" fill="none" xmlns="http://www.w3.org/2000/svg">
<path d="M24.8498 65.8291L22.8146 65.2308L19.4225 64.2338L17.8262 63.3961L15.5515 62.359L13.7157 61.0824L11.6403 59.3668L9.32551 57.2124L7.4496 54.8184L5.09468 51.5467L3.89718 49.3522L2.89908 46.4792L2.14048 44.0452L1.58128 40.9327L1.50109 38.6981L1.6203 35.7851L1.97902 33.3109L2.09823 30.3979L2.89586 27.6843L3.69348 24.9706L4.4911 22.257L6.80485 18.1465L8.52038 16.0711L11.1137 13.5168L13.5077 11.6409L16.58 9.9644L20.5302 7.80889L24.0414 5.89288L27.3533 4.65528L30.6651 3.41767L33.5381 2.41957L37.0894 1.62088L40.4414 1.50059L44.4717 1.57971L48.0632 1.89833L50.7768 2.69595L54.6478 4.57079L59.4368 7.08395L61.7516 9.23838L66.262 16.4603L68.178 19.9716L70.6131 25.4779L71.8908 29.9071L71.6524 35.7332L70.8949 39.5641L70.1374 43.3951L68.7014 47.0266L68.1032 49.0618L64.5128 55.0082L61.4806 57.802L56.9322 61.9928L52.1042 64.6273L47.9146 66.3439L43.6848 66.9432L38.7767 67.343L34.7463 67.2639L30.7159 67.1848L26.885 66.4273L24.8498 65.8291Z" stroke="white" stroke-width="3"/>
</svg>
