<svg width="150" height="224" viewBox="0 0 150 224" fill="none" xmlns="http://www.w3.org/2000/svg">
<path d="M86 221L80.5 215.5L78 212L75.5 209.5L74 205.5L73 202.5V198.5V196.5V193.5V190.5L71.5 187.5L68.5 185L67 187.5L65 190.5V193.5L62 198L58.5 200.5L55.5 202L52.5 203.5L46.5 204.5H43H40L35.5 202.5L31.5 200L29 197L28.5 191.5V189L27.5 186.5L26 182L22.5 179.5V177L21.5 171L21 167.5V161.5L22.5 156L24 152.5L22.5 149L21 146L19 140.5L16 134.5L15.5 130.5L14.5 125L15.5 122L17.5 118.5L19 115V112.5L18 108.5L16 106L14.5 102L11.5 98L9 93L6.5 87.5L4 81.5L2.5 75.5V72L1.5 68V63.5L2.5 58L3.5 54L4 49.5V45L6.5 39L8 34.5L9.5 30L12.5 26.5L14 22.5L17 18L19 13L24.5 9L27 6.5L30 4.5L35.5 4L39 4.5H42.5H46L50 6.5L57 10.5L60.5 11L65.5 12.5L67 10.5L68 7L69 4L73 1.5H76.5H80H84H87.5L91.5 2.5L95 4.5L97 7L100.5 9L104 11L107 10.5L110 9L114 8H117.5L122 9L125.5 10.5L129 12.5L132.5 15L136.5 20L139 23.5L142 28.5L144.5 32L146 37.5L146.5 42.5L148 51V54.5V57.5V61.5V67.5V72V76.5L146.5 81L144.5 86.5L143 90L141 94.5L139 98V102.5L139.5 106V110.5L139 115L137 119.5L135.5 122.5L135 126L134 129L132.5 131.5L132 135L130 140L128.5 144.5V149.5V155V159V162L126.5 168V171.5L124.5 175.5L123.5 179.5L123 182.5L122 186.5V190V193.5V198.5L121 202V204.5V207.5L119.5 210.5L118 214L117 216.5L113.5 217.5L110 220L104 221.5L101 222L97 222.5H95L89.5 221H86Z" stroke="white" stroke-width="3"/>
</svg>
