<svg width="128" height="227" viewBox="0 0 128 227" fill="none" xmlns="http://www.w3.org/2000/svg">
<path d="M78.0178 4.5L64.5178 1.5H63.0178H59.5178H57.5178L52.5178 3.5L47.5178 5.5L43.5178 8.5L40.5178 11.5L38.5178 15.5L37.5178 20L37.0178 22.5L38.5178 27.5L39.0178 30.5L40.5178 34.5L42.5178 38.5L45.0178 41.5L47.5178 43L48.5178 46L48.0178 51L47.0178 55L45.5178 59.5L44.0178 62.5L42.0178 66V69.5V72.5L44.5178 76L47.0178 79.5L48.0178 81.5L48.5178 83.5V85V88L46.5178 89L44.5178 89.7965L41.5178 88.5L40.0178 87.5L39.0178 87L34.0178 85H31.5178L29.5178 86L28.0178 86.5L26.5178 87L24.0178 89L20.5178 92.5L19.0178 93.5L16.0178 94.5H13.5178H11.0178H9.01782L6.01782 96.5L4.51782 98L3.01782 99.5L2.01782 103V106L1.51782 109.5L2.01782 112.5L3.01782 116L6.01782 120.5L6.51782 122L7.51782 123L11.0178 123.5L15.5178 125.5L19.5178 128.5L22.0178 131L24.0178 132.5L26.0178 133L29.0178 132.5H31.0178H32.5178L34.5178 130.5L37.0178 129.5L38.5178 128.5L41.5178 127H44.5178H46.5178L48.5178 128L49.0178 130V132.5V134.5V137L48.0178 141.5V147.5V151L47.5178 155.5L47.0178 158.5L48.5178 163.5L49.5178 168.5L49.0178 173L48.5178 176.5L48.0178 180.5L45.0178 184.5L43.5178 188.5L41.5178 192.5L40.5178 194.5V197.5L43.0178 200L44.5178 202L46.5178 203.5L47.0178 205L48.0178 208L48.5178 210.5L49.0178 214L50.5178 216L52.0178 218.5L54.0178 221L55.0178 222.5L57.0178 223.5L59.0178 224.5L62.0178 225H64.0178L66.5178 224.5H68.0178L69.5178 222.5L71.0178 222L72.0178 220L74.5178 216L76.5178 214L77.5178 210.5L79.0178 207L80.0178 205L81.0178 204L82.5178 200.5L83.5178 198.5L84.5178 196L85.0178 195L86.0178 193L86.5178 191V188.5L86.0178 186.5L85.5178 184L84.5178 181.5L84.0178 179L82.0178 176.5L80.5178 174L78.5178 172L77.5178 168.5V164.5V163L76.5178 160V156L77.0178 153.5V151.5V148.5V146.5L76.5178 143V140V136.5L76.0178 134.5V130.5L77.5178 127L80.2484 125.5L82.0178 125L84.5178 124.5L86.5178 125.5L88.0178 127L89.5178 128L90.0178 128.5L91.0178 130L92.0178 130.5H93.0178H95.5178L97.5178 130L100.018 129L101.518 128L103.018 127.5L105.518 126.5L107.018 125.5L110.018 124.5L111.518 123.5L113.018 123L114.518 122.5H115.518L117.518 121L119.518 120L121.018 118L122.018 116.5L123.018 114.5L124.018 112.5L124.518 110.5L125.018 107V104.5L125.518 103.5L124.018 100.5L122.518 98.5L120.518 97L119.518 95L118.518 94L117.018 93.5H114.518L111.018 93L108.018 92.5L104.518 90L104.018 89.5L102.518 88L101.018 87.5L98.0178 87H96.0178H94.5178L91.0178 88L89.5178 89L87.0178 90L85.5178 91L84.5178 92L81.0178 92.5L78.5178 92L77.0178 91L75.5178 90L74.5178 88.5V86L75.0178 85L76.0178 82.5L76.5178 80.5L77.5178 79L79.0178 76.5L80.0178 75L81.5178 70.7426V69L81.0178 65V63.5L80.0178 61.5L78.5178 58L77.5178 55L76.5178 53V49V47L78.0178 45L78.5178 43L81.0178 40.5L82.5178 39L84.5178 37.5L86.0178 36L88.0178 33.5L89.0178 31.5L89.5178 30.5V28.5V26V24L89.0178 21L88.5178 18L87.5178 15.5L86.5178 13L85.0178 10L84.5178 8.5L83.5178 7L81.5178 5.5L78.0178 4.5Z" stroke="white" stroke-width="3"/>
</svg>
