<svg width="198" height="204" viewBox="0 0 198 204" fill="none" xmlns="http://www.w3.org/2000/svg">
<path d="M66.4417 194.563L62.0516 190.693L60.1355 187.181L58.0602 185.466L56.6232 182.833L53.8294 179.8L48.8801 172.818L46.3257 170.224L44.0109 168.07L41.8554 164.12L35.5092 155.621L31.119 151.751L28.8042 149.597L25.5715 146.804L24.1345 144.171L21.8196 142.016L19.4246 137.627L14.7549 132.201L7.41054 120.83L3.85705 109.098L3.29785 105.986L3.85597 102.833L3.3358 94.5732L3.45502 91.6602L3.77364 88.0687L3.13425 82.7217L3.01396 79.3697L1.57696 76.7363L2.33448 72.9053L3.96982 68.5954L5.20635 65.6423L7.08119 61.7712L9.27573 60.5737L11.1907 57.82L12.6667 55.3058L19.0498 46.1267L22.042 42.2155L25.7125 38.5038L33.4926 30.8408L37.1631 27.1291L46.3 19.8649L48.6538 16.8717L52.1651 14.9557L57.0732 14.5558L59.2678 13.3583L61.4623 12.1608L63.2179 11.2028L64.7341 9.80588L66.2504 8.4094L69.3228 6.73289L71.9562 5.29588L75.0286 3.61937L77.9013 2.62084L85.0441 2.14077L90.3914 1.50181L98.4523 1.65993L102.044 1.97867L105.196 2.53636L122.316 11.9908L126.228 14.9829L129.221 17.3368L134.329 22.5234L141.194 26.7521L144.626 28.8665L148.537 31.8586L150.652 34.6915L153.766 40.3973L154.764 43.2702L155.921 44.3474L157.558 46.3025L158.516 48.0581L161.669 54.8812L162.827 55.9584L170.81 66.412L171.129 69.0855L172.726 69.9232L175.16 69.1646L176.756 70.0023L178.831 71.7179L179.789 73.4735L181.186 74.9896L183.7 76.4657L190.605 81.8117L192.241 83.7667L193.958 87.9564L195.076 94.1812L195.875 97.7326L195.317 100.885L194.958 103.359L194.44 107.629L193.203 110.582L189.853 116.968L187.06 120.2L176.886 129.739L174.093 132.972L170.183 136.245L162.681 139.199L160.926 140.157L158.292 141.594L157.455 143.19L149.715 151.971L140.299 163.943L135.472 172.843L132.122 179.228L128.411 181.823L124.541 186.213L120.99 187.011L117.518 190.045L112.93 193.118L102.556 197.07L98.6054 199.226L94.6552 201.382L90.665 202.42L84.9982 200.386L78.2542 199.509L73.5054 198.113L69.4349 196.917L66.4417 194.563Z" stroke="white" stroke-width="3"/>
</svg>
